<?xml version="1.0" standalone="no"?>
<!DOCTYPE svg PUBLIC "-//W3C//DTD SVG 20010904//EN"
 "http://www.w3.org/TR/2001/REC-SVG-20010904/DTD/svg10.dtd">
<svg version="1.0" xmlns="http://www.w3.org/2000/svg"
 width="320.000000pt" height="264.000000pt" viewBox="0 0 320.000000 264.000000"
 preserveAspectRatio="xMidYMid meet">
<metadata>
Created by potrace 1.16, written by Peter Selinger 2001-2019
</metadata>
<g transform="translate(0.000000,264.000000) scale(0.100000,-0.100000)"
fill="#000000" stroke="none">
<path d="M0 1320 l0 -1320 1600 0 1600 0 0 1320 0 1320 -1600 0 -1600 0 0
-1320z m1865 1055 c648 -168 986 -881 708 -1493 -97 -214 -302 -421 -518 -522
-247 -116 -547 -133 -801 -46 -342 116 -607 401 -700 751 -24 87 -27 121 -28
260 -1 103 4 180 12 215 60 248 152 411 322 573 140 134 302 223 485 266 126
29 134 30 285 26 105 -3 158 -9 235 -30z"/>
<path d="M1490 2244 c-86 -15 -142 -28 -195 -46 -285 -98 -509 -343 -587 -641
-28 -107 -31 -326 -5 -430 50 -201 173 -393 329 -513 378 -292 906 -251 1229
94 363 387 326 987 -81 1330 -90 75 -243 154 -355 182 -77 19 -279 34 -335 24z
m-158 -836 l3 -353 85 -3 85 -3 68 -67 c37 -36 67 -70 67 -74 0 -4 -107 -6
-237 -5 l-238 2 -3 428 -2 427 85 0 85 0 2 -352z m570 139 l-214 -214 211
-208 c116 -115 209 -210 207 -212 -2 -2 -54 -4 -116 -4 l-113 -1 -208 208
c-115 115 -209 213 -209 219 0 5 93 103 207 217 l208 208 120 0 120 0 -213
-213z"/>
</g>
</svg>
