<?xml version="1.0" standalone="no"?>
<!DOCTYPE svg PUBLIC "-//W3C//DTD SVG 20010904//EN"
 "http://www.w3.org/TR/2001/REC-SVG-20010904/DTD/svg10.dtd">
<svg version="1.0" xmlns="http://www.w3.org/2000/svg"
 width="665.000000pt" height="614.000000pt" viewBox="0 0 665.000000 614.000000"
 preserveAspectRatio="xMidYMid meet">
<metadata>
Created by potrace 1.16, written by Peter Selinger 2001-2019
</metadata>
<g transform="translate(0.000000,614.000000) scale(0.100000,-0.100000)"
fill="#000000" stroke="none">
<path d="M3025 6089 c-178 -17 -489 -68 -545 -89 -14 -5 -71 -21 -128 -35 -57
-14 -111 -30 -120 -35 -9 -5 -48 -19 -87 -31 -38 -12 -74 -25 -80 -29 -5 -4
-24 -12 -42 -18 -76 -26 -462 -214 -473 -231 -3 -5 -20 -16 -39 -26 -35 -17
-222 -143 -231 -155 -3 -3 -21 -17 -40 -30 -19 -12 -39 -28 -45 -34 -5 -7 -24
-22 -41 -34 -126 -88 -397 -369 -540 -559 -42 -57 -154 -222 -154 -229 0 -3
-9 -18 -19 -33 -32 -45 -156 -293 -190 -382 -18 -46 -37 -93 -41 -104 -26 -66
-86 -264 -100 -335 -5 -25 -16 -75 -24 -112 -61 -280 -54 -832 14 -1108 5 -19
14 -57 20 -85 13 -53 58 -206 70 -240 5 -11 13 -36 20 -55 13 -37 19 -54 42
-110 8 -19 21 -51 28 -70 7 -19 17 -39 21 -45 4 -5 33 -62 65 -125 32 -63 77
-143 101 -178 24 -35 43 -67 43 -71 0 -4 8 -16 18 -27 9 -11 22 -27 27 -36 46
-71 78 -112 177 -229 140 -165 255 -281 378 -379 24 -19 51 -42 60 -50 8 -8
31 -26 50 -39 19 -13 40 -30 45 -36 9 -10 89 -64 290 -194 23 -14 81 -46 130
-71 50 -25 92 -48 95 -51 3 -3 32 -16 65 -29 33 -13 62 -27 65 -30 3 -3 34
-17 70 -30 36 -13 70 -26 75 -30 6 -4 42 -17 80 -30 39 -12 84 -28 100 -35 17
-7 73 -23 125 -35 52 -13 102 -26 110 -31 9 -4 72 -17 140 -29 69 -11 139 -25
155 -30 60 -19 356 -40 559 -40 208 0 525 23 557 41 10 5 30 9 46 9 60 1 455
96 518 124 17 8 55 21 85 31 30 10 60 21 65 25 6 4 39 17 75 30 36 13 67 27
70 30 3 3 32 17 65 30 33 13 62 26 65 29 3 3 45 26 95 51 49 25 110 58 135 74
145 93 276 181 285 191 6 7 26 23 45 36 19 13 44 31 55 40 153 128 284 253
382 365 28 32 63 73 77 89 15 17 30 35 34 40 18 25 77 100 82 105 7 7 29 42
37 60 4 8 9 17 13 20 8 6 96 142 123 190 34 61 147 287 147 295 0 4 7 23 16
43 9 21 20 46 24 57 4 11 15 36 23 55 23 53 96 320 122 445 63 312 56 830 -15
1115 -5 19 -14 58 -20 85 -13 53 -58 206 -70 240 -5 11 -13 36 -20 55 -15 45
-21 59 -72 180 -6 14 -15 34 -21 45 -6 11 -28 55 -49 99 -21 43 -54 102 -73
132 -19 30 -35 57 -35 60 0 3 -10 20 -22 37 -13 17 -27 39 -33 48 -113 186
-406 516 -585 659 -24 19 -54 44 -66 56 -12 12 -39 31 -59 44 -20 12 -44 30
-53 39 -25 25 -248 171 -261 171 -6 0 -11 4 -11 9 0 5 -14 14 -31 21 -17 7
-45 23 -63 34 -17 12 -56 32 -86 46 -30 14 -57 27 -60 30 -3 4 -21 12 -40 20
-19 7 -67 28 -107 47 -40 18 -76 33 -80 33 -4 0 -20 6 -34 14 -15 7 -58 23
-95 35 -38 12 -77 26 -86 31 -20 11 -211 60 -230 59 -7 0 43 -17 112 -38 508
-152 977 -420 1314 -749 398 -389 611 -735 762 -1237 52 -172 94 -472 94 -662
0 -98 -4 -129 -24 -182 -23 -63 -37 -68 -38 -13 0 15 9 52 19 82 18 50 18 58
5 92 -12 32 -20 38 -43 38 -38 0 -55 30 -63 110 -4 36 -17 99 -31 140 -13 43
-26 113 -29 163 -4 64 -10 95 -24 115 -11 15 -33 54 -49 87 -132 270 -288 552
-329 593 -8 7 -28 35 -46 60 -96 142 -341 396 -511 531 -275 218 -617 404
-952 516 -356 119 -650 165 -1049 165 -116 0 -220 -2 -231 -4 -11 -2 -56 -7
-100 -11 -177 -15 -503 -88 -695 -154 -210 -72 -485 -202 -635 -299 -50 -32
-104 -63 -120 -69 -49 -17 -97 -50 -155 -106 -30 -29 -95 -89 -145 -132 -113
-101 -294 -282 -346 -347 -87 -111 -148 -171 -165 -164 -21 8 -63 -37 -98
-105 -14 -25 -32 -52 -42 -60 -9 -8 -40 -50 -69 -94 -29 -44 -62 -88 -73 -99
-19 -17 -22 -17 -28 -3 -10 28 27 177 69 277 81 191 209 381 393 585 102 114
258 265 334 325 36 29 74 59 85 68 53 44 199 145 280 194 424 256 856 402
1390 469 58 8 213 13 370 13 294 0 439 -13 671 -60 71 -15 140 -29 154 -31 17
-4 22 -2 15 5 -12 11 -263 59 -415 78 -135 17 -595 26 -725 13z m1656 -967
c255 -68 451 -229 547 -447 25 -59 29 -77 23 -107 -8 -34 -7 -37 20 -49 16 -6
29 -15 29 -18 0 -6 -423 -111 -448 -111 -5 0 -13 17 -17 38 -10 56 -64 150
-115 202 -89 88 -201 130 -348 130 -273 0 -472 -176 -533 -471 -16 -80 -21
-142 -22 -269 -2 -414 98 -644 324 -750 91 -42 189 -56 290 -42 203 29 335
155 410 390 13 42 28 72 36 72 8 0 69 -18 136 -39 67 -22 156 -49 197 -61 41
-12 80 -23 87 -25 24 -8 -61 -232 -129 -337 -94 -146 -192 -232 -343 -304
-146 -69 -248 -88 -455 -88 -158 0 -185 3 -275 27 -89 24 -241 87 -255 105 -3
4 -25 21 -50 37 -112 76 -246 229 -307 350 -101 201 -140 405 -130 693 13 377
111 630 324 832 138 132 286 210 473 251 119 26 418 21 531 -9z m-2749 -75
l-52 -53 0 -452 0 -452 44 0 44 0 7 -226 c4 -125 6 -314 3 -420 l-4 -194 568
0 568 0 0 -190 0 -190 -795 0 -795 0 0 1115 0 1115 232 0 232 0 -52 -53z m-3
-2517 c19 -5 43 -17 53 -27 19 -17 19 -18 -7 -39 l-27 -21 31 -26 c36 -30 37
-33 13 -46 -13 -7 -37 -5 -76 5 -34 9 -71 12 -90 8 -62 -13 -168 -78 -242
-148 -63 -60 -78 -70 -99 -64 -23 6 -25 4 -25 -28 0 -38 2 -39 32 -23 15 8 26
8 44 -1 16 -9 50 -11 111 -7 118 7 176 -6 225 -52 23 -21 41 -49 44 -69 6 -32
6 -33 -20 -26 -20 5 -26 2 -26 -10 0 -11 9 -16 31 -16 29 0 30 -1 24 -32 -31
-158 -215 -339 -384 -378 -103 -24 -211 8 -263 77 -31 41 -38 100 -13 109 8 4
49 -6 90 -21 62 -23 86 -27 138 -23 103 9 188 65 260 171 78 114 62 131 -118
129 -135 -2 -187 14 -226 70 -72 100 2 245 196 383 100 71 168 99 280 114 6 0
25 -3 44 -9z m2102 -147 c36 -21 36 -26 3 -52 l-26 -21 27 -10 c31 -12 29 -26
-7 -53 -39 -29 -86 -27 -111 5 -18 24 -19 32 -8 67 12 40 51 81 78 81 8 0 28
-8 44 -17z m-307 -199 c23 -9 20 -23 -9 -46 -32 -25 -31 -33 4 -44 29 -9 29
-10 17 -44 -14 -40 -316 -476 -348 -502 -24 -22 -71 -23 -87 -4 -23 28 -111
453 -111 536 0 52 28 100 59 100 20 0 71 -36 71 -50 0 -4 -13 -13 -30 -20 -23
-9 -29 -17 -25 -34 2 -11 7 -43 10 -71 14 -119 24 -137 56 -99 12 15 14 13 20
-10 4 -15 11 -56 14 -91 4 -36 10 -65 14 -65 13 1 181 268 214 342 43 94 79
122 131 102z m747 -20 c28 -25 23 -44 -11 -51 -45 -9 -45 -20 0 -28 46 -8 48
-12 19 -49 -23 -29 -73 -35 -112 -15 -19 11 -26 6 -69 -41 -56 -60 -90 -123
-114 -208 -21 -77 -16 -92 34 -92 37 0 82 19 188 80 23 14 48 21 57 17 21 -8
22 -48 2 -87 -40 -77 -223 -158 -309 -136 -31 8 -73 50 -92 93 -50 114 53 367
195 479 31 24 70 48 86 53 43 12 105 4 126 -15z m1883 -25 c-9 -24 -27 -68
-40 -97 -13 -29 -24 -55 -24 -58 0 -9 -130 -265 -149 -293 -10 -14 -46 -71
-81 -126 -34 -55 -76 -119 -93 -142 -18 -23 -44 -61 -59 -85 -61 -98 -306
-343 -480 -481 -477 -378 -1040 -610 -1683 -693 -169 -22 -486 -29 -665 -15
-85 7 -233 26 -328 42 -95 16 -175 29 -179 29 -3 0 -4 2 -1 5 3 3 52 -1 109
-9 163 -23 177 -25 309 -36 131 -12 399 -7 600 11 435 38 901 168 1240 347
183 96 249 134 360 207 218 142 480 384 668 615 47 58 103 124 124 147 68 76
216 319 287 472 28 60 51 112 51 115 0 12 43 97 47 93 2 -3 -4 -24 -13 -48z
m-736 12 c29 -16 28 -37 -3 -45 -29 -7 -24 -26 6 -26 31 0 22 -54 -11 -61 -21
-4 -60 10 -60 22 0 26 -101 -12 -160 -59 -32 -26 -19 -42 58 -73 79 -31 129
-64 137 -90 10 -31 -3 -100 -25 -136 -33 -54 -146 -114 -244 -128 -91 -14
-171 51 -133 108 12 19 24 22 79 23 69 1 171 28 190 51 15 18 -2 34 -62 57
-104 40 -150 92 -150 168 0 43 43 96 123 150 93 64 184 78 255 39z m-2800 7
c18 -18 15 -35 -8 -41 -16 -4 -20 -14 -20 -44 0 -21 -3 -62 -6 -90 -4 -29 -3
-53 2 -53 5 0 20 33 35 72 20 60 33 79 67 105 60 46 101 55 162 37 47 -14 90
-52 90 -80 0 -7 -12 -17 -27 -22 l-28 -10 31 -7 c25 -6 31 -11 26 -27 -2 -10
-15 -26 -28 -35 -30 -19 -75 -4 -95 33 -10 20 -18 24 -38 19 -36 -9 -74 -38
-119 -93 -33 -39 -44 -65 -66 -151 -14 -57 -26 -124 -26 -147 0 -52 -26 -84
-67 -84 -73 1 -76 46 -24 304 23 110 41 215 41 233 0 35 15 73 34 85 17 12 51
9 64 -4z m-358 -53 c28 -14 50 -42 50 -63 0 -6 -11 -13 -25 -16 -35 -9 -32
-35 5 -42 33 -7 37 -22 16 -63 -37 -70 -135 -122 -273 -144 -78 -12 -91 -24
-79 -71 17 -69 167 -53 288 30 50 35 92 30 96 -11 6 -70 -88 -143 -219 -171
-181 -39 -291 20 -295 157 0 33 -4 62 -8 66 -16 16 -5 66 22 91 15 15 44 50
65 78 49 68 119 131 170 155 51 23 146 25 187 4z m1504 9 c18 -7 22 -34 5 -34
-8 0 -8 -4 0 -14 9 -11 3 -50 -30 -178 -23 -89 -51 -201 -62 -248 -22 -96 -38
-120 -78 -120 -30 0 -69 40 -69 70 0 17 49 212 104 414 14 53 31 95 42 103 19
14 62 17 88 7z m1049 -3 c29 -11 67 -49 67 -67 0 -6 -14 -14 -31 -18 -37 -7
-34 -27 7 -41 23 -8 28 -15 25 -35 -11 -81 -118 -146 -286 -174 l-70 -12 0
-39 c0 -32 5 -42 25 -53 43 -23 114 -9 214 42 50 25 101 46 114 46 19 0 22 -5
22 -44 0 -38 -5 -48 -35 -75 -78 -68 -215 -110 -317 -97 -107 14 -148 60 -161
176 -12 113 -11 123 15 145 13 11 38 41 56 67 46 67 118 135 171 163 49 26
138 33 184 16z"/>
</g>
</svg>
